<!DOCTYPE svg PUBLIC "-//W3C//DTD SVG 1.1//EN" "http://www.w3.org/Graphics/SVG/1.1/DTD/svg11.dtd">
<!-- Uploaded to: SVG Repo, www.svgrepo.com, Transformed by: SVG Repo Mixer Tools -->
<svg version="1.1" id="Layer_1" xmlns="http://www.w3.org/2000/svg" xmlns:xlink="http://www.w3.org/1999/xlink" viewBox="0 0 512 512" xml:space="preserve" width="800px" height="800px" fill="#000000" stroke="#000000" stroke-width="3.072">
<g id="SVGRepo_bgCarrier" stroke-width="0"/>
<g id="SVGRepo_tracerCarrier" stroke-linecap="round" stroke-linejoin="round"/>
<g id="SVGRepo_iconCarrier"> <circle style="fill:#07A5D1;" cx="256" cy="256" r="256"/> <path style="opacity:0.1;enable-background:new ;" d="M356.347,151.083l-99.787-28.64c-0.373-0.107-0.747-0.107-1.12,0 l-99.787,28.64c-1.493,0.427-1.867,2.133-1.12,3.2c-0.747,1.067-0.373,2.773,1.12,3.2l43.467,12.48 c-3.627,6.773-6.133,14.293-7.147,22.24c-0.48,3.627,0.907,7.147,3.52,9.493c-0.107,0.48-0.213,0.96-0.32,1.493 c-2.987-1.867-6.133-2.56-8.907-1.547c-6.827,2.4-9.173,13.28-5.333,24.373c3.2,9.12,9.6,15.413,15.573,16.107 c0.267,1.387,0.693,2.773,1.013,4.107l-0.373,2.08h0.907c2.88,10.24,7.04,20.053,12.267,28.693v22.773l-0.907-0.48l-10.453,4.053 l-37.333,14.56l-11.52,4.48c-12.64,5.28-22.613,15.52-27.52,28.373l-13.227,38.88l121.083,121.083 C238.848,511.557,247.371,512,256,512c125.515,0,229.856-90.352,251.717-209.547L357.749,152.485 C357.568,151.856,357.109,151.301,356.347,151.083z"/> <rect x="209.653" y="263.84" style="fill:#F6C358;" width="92.731" height="59.984"/> <polygon style="fill:#E1E6E9;" points="302.608,299.285 256,323.136 209.392,299.285 198.939,303.36 253.632,389.632 256,389.632 258.368,389.632 313.061,303.36 "/> <polygon style="fill:#64798A;" points="161.648,317.893 235.509,389.632 253.632,389.632 198.939,303.36 "/> <path style="fill:#3A556A;" d="M150.123,322.389c-12.683,5.28-22.635,15.541-27.525,28.384l-13.264,38.859h126.176l-73.867-71.739 L150.123,322.389z"/> <polygon style="fill:#FFFFFF;" points="209.392,299.285 253.632,321.92 227.472,348.363 198.939,303.36 "/> <polygon style="fill:#64798A;" points="350.352,317.893 276.491,389.632 258.368,389.632 313.061,303.36 "/> <path style="fill:#3A556A;" d="M361.877,322.389c12.683,5.28,22.635,15.541,27.525,28.384l13.269,38.864H276.491l73.867-71.739 L361.877,322.389z"/> <polygon style="fill:#FFFFFF;" points="302.608,299.285 258.368,321.92 284.528,348.363 313.061,303.36 "/> <g> <ellipse transform="matrix(-0.3308 0.9437 -0.9437 -0.3308 633.3629 -5.7062)" style="fill:#F6C358;" cx="318.705" cy="221.713" rx="21.28" ry="13.067"/> <ellipse transform="matrix(-0.9437 0.3308 -0.3308 -0.9437 449.0412 366.9759)" style="fill:#F6C358;" cx="193.293" cy="221.699" rx="13.067" ry="21.28"/> </g> <path style="fill:#FCD462;" d="M318.165,218.56c0,42.88-27.829,90.48-62.165,90.48c-34.331,0-62.165-47.6-62.165-90.48 s27.835-64.805,62.165-64.805S318.165,175.68,318.165,218.56z"/> <path style="fill:#64798A;" d="M255.995,135.979c-32.827,0-59.925,24.501-64.011,56.213c-0.624,4.837,2.037,9.493,6.517,11.424 c19.493,8.411,38.272,15.237,55.371,18.357c1.264,0.229,2.56,0.224,3.829-0.005c17.6-3.248,36.325-9.605,55.888-18.283 c4.427-1.963,7.04-6.581,6.432-11.387C315.979,160.539,288.853,135.979,255.995,135.979z"/> <path style="fill:#2F4859;" d="M356.331,153.499l-99.755-28.629c-0.373-0.107-0.773-0.107-1.152,0l-99.755,28.629 c-2.011,0.576-2.011,3.429,0,4.011l99.755,28.635c0.379,0.107,0.773,0.107,1.152,0l99.755-28.635 C358.341,156.928,358.341,154.075,356.331,153.499z"/> <path style="fill:#3A556A;" d="M356.331,151.077l-99.755-28.629c-0.373-0.107-0.773-0.107-1.152,0l-99.755,28.629 c-2.011,0.576-2.011,3.429,0,4.011l99.755,28.629c0.379,0.107,0.773,0.107,1.152,0l99.755-28.629 C358.341,154.512,358.341,151.659,356.331,151.077z"/> <path style="fill:#E56353;" d="M210.779,213.061c-2.048,0-3.701-1.659-3.701-3.701v-38.453c0-1.525,0.939-2.901,2.363-3.451 l44.112-17.136c1.899-0.747,4.053,0.203,4.789,2.107c0.741,1.904-0.203,4.053-2.107,4.795L214.48,173.44v35.92 C214.48,211.403,212.827,213.061,210.779,213.061z"/> <ellipse style="fill:#2F4859;" cx="256" cy="153.083" rx="9.547" ry="6.171"/> <polygon style="fill:#E56353;" points="224.4,248.304 197.152,248.304 204.928,205.787 216.624,205.787 "/> <circle style="fill:#D15241;" cx="210.779" cy="203.573" r="9.696"/> </g>
</svg>