<?xml version="1.0" standalone="no"?>
<!DOCTYPE svg PUBLIC "-//W3C//DTD SVG 20010904//EN"
 "http://www.w3.org/TR/2001/REC-SVG-20010904/DTD/svg10.dtd">
<svg version="1.0" xmlns="http://www.w3.org/2000/svg"
 width="400.000000pt" height="400.000000pt" viewBox="0 0 400.000000 400.000000"
 preserveAspectRatio="xMidYMid meet">

<g transform="translate(0.000000,400.000000) scale(0.100000,-0.100000)"
fill="#000000" stroke="none">
<path d="M1824 3465 c-43 -57 -84 -107 -91 -109 -7 -3 -67 2 -134 10 -67 8
-123 13 -125 11 -6 -5 47 -127 66 -155 11 -16 36 -25 105 -38 50 -9 102 -18
117 -21 55 -10 75 4 148 106 38 55 70 109 70 121 0 24 -57 167 -70 175 -4 3
-43 -42 -86 -100z"/>
<path d="M2395 3378 c-81 -12 -136 -16 -145 -10 -31 19 -100 -19 -126 -70 -21
-40 -18 -51 24 -98 l38 -43 130 21 c101 17 133 26 146 42 19 23 71 156 66 168
-1 5 -61 0 -133 -10z"/>
<path d="M2062 3320 c7 -11 17 -20 22 -20 5 0 1 9 -9 20 -10 11 -20 20 -22 20
-2 0 2 -9 9 -20z"/>
<path d="M2615 3244 c-16 -7 -51 -22 -76 -33 -50 -22 -74 -44 -64 -61 3 -5 2
-10 -3 -10 -6 0 -9 -22 -9 -49 1 -27 -1 -47 -4 -45 -9 5 -19 -49 -19 -102 0
-46 -2 -44 115 -128 102 -74 102 -74 200 -36 47 18 85 38 85 44 0 7 -45 45
-99 85 -55 40 -102 79 -105 87 -3 8 1 67 10 131 8 64 11 119 7 123 -4 4 -21 2
-38 -6z"/>
<path d="M1340 3223 c0 -16 7 -71 15 -123 8 -52 15 -115 15 -140 0 -51 28
-105 59 -115 12 -3 21 -10 21 -15 0 -16 39 2 79 37 47 40 47 40 25 183 -20
122 -28 134 -122 173 -80 34 -92 34 -92 0z"/>
<path d="M1825 2815 c-14 -13 -25 -35 -25 -47 0 -27 26 -68 43 -68 7 0 18 -4
26 -9 11 -7 10 -14 -8 -40 -19 -26 -20 -31 -6 -31 21 0 95 116 95 151 0 33
-40 69 -77 69 -13 0 -35 -11 -48 -25z m94 -27 c17 -45 -39 -87 -75 -58 -17 15
-18 52 -2 68 21 21 68 15 77 -10z"/>
<path d="M2012 2824 c-24 -17 -30 -62 -10 -82 9 -9 8 -16 -5 -30 -9 -10 -17
-28 -17 -40 0 -25 44 -62 75 -62 31 0 75 37 75 62 0 12 -8 30 -17 40 -13 14
-14 21 -5 30 33 33 -2 98 -53 98 -11 0 -31 -7 -43 -16z m73 -49 c0 -27 -3 -30
-30 -30 -21 0 -31 5 -33 18 -6 33 6 49 35 45 24 -3 28 -8 28 -33z m-1 -68 c11
-8 17 -23 14 -38 -3 -21 -8 -24 -43 -24 -35 0 -40 3 -43 24 -4 24 19 51 43 51
6 0 19 -6 29 -13z"/>
<path d="M1180 2821 c0 -6 4 -13 10 -16 6 -3 7 1 4 9 -7 18 -14 21 -14 7z"/>
<path d="M1698 2823 c-27 -7 -22 -23 7 -23 25 0 25 -1 25 -90 0 -73 3 -90 15
-90 12 0 15 18 15 105 0 103 -1 105 -22 104 -13 -1 -31 -3 -40 -6z"/>
<path d="M2200 2750 c-22 -44 -40 -82 -40 -85 0 -3 25 -5 56 -5 47 0 57 -3 61
-20 6 -23 23 -27 23 -5 0 7 8 19 18 25 16 10 16 10 0 20 -11 7 -18 23 -18 40
0 41 -18 38 -22 -2 -3 -30 -6 -33 -40 -36 -21 -2 -38 1 -38 7 0 6 16 40 36 76
28 51 32 65 20 65 -10 0 -31 -31 -56 -80z"/>
<path d="M1245 2669 c-38 -17 -74 -34 -78 -38 -4 -5 40 -43 98 -86 58 -44 105
-84 106 -89 5 -47 3 -132 -3 -123 -4 7 -8 -6 -8 -28 -1 -22 -3 -57 -6 -77 l-6
-38 32 12 c24 8 28 13 18 20 -9 6 -5 7 12 4 34 -6 124 42 128 69 1 11 7 47 13
80 6 33 13 85 15 117 l6 56 -59 43 c-32 23 -75 56 -96 71 -54 42 -89 43 -172
7z"/>
<path d="M2487 2593 c-20 -16 -40 -38 -43 -51 -11 -38 26 -244 48 -268 20 -23
165 -81 175 -70 3 3 -2 61 -11 128 -9 68 -16 140 -16 161 0 50 -23 93 -60 112
-40 21 -51 19 -93 -12z"/>
<path d="M1672 2270 c-72 -12 -109 -23 -122 -36 -22 -24 -76 -162 -66 -171 3
-4 65 1 136 11 97 13 134 15 149 6 14 -7 21 -7 21 0 0 5 9 10 20 10 28 0 76
49 84 87 6 27 2 37 -30 72 -42 47 -40 47 -192 21z"/>
<path d="M2154 2254 c-75 -97 -124 -175 -124 -196 0 -31 61 -168 74 -168 6 0
44 45 85 100 41 54 81 102 89 105 8 3 51 0 94 -6 43 -6 89 -9 103 -7 13 3 22
1 19 -3 -3 -5 7 -9 23 -8 15 0 22 3 15 6 -6 2 -10 8 -7 13 3 4 -2 21 -10 36
-8 16 -15 35 -15 42 0 6 -4 12 -10 12 -5 0 -10 8 -10 18 0 45 -58 66 -246 88
-50 6 -51 5 -80 -32z"/>
<path d="M1815 2030 c-3 -5 -1 -10 4 -10 6 0 11 5 11 10 0 6 -2 10 -4 10 -3 0
-8 -4 -11 -10z"/>
<path d="M1925 1910 c-4 -6 -11 -7 -17 -4 -7 4 -8 2 -4 -4 10 -16 23 -15 30 3
6 17 0 20 -9 5z"/>
<path d="M1202 1628 c-5 -7 -12 -22 -16 -33 -5 -17 -1 -20 24 -22 16 -1 32 2
35 7 4 6 -3 10 -14 10 -12 0 -21 7 -21 15 0 8 7 15 15 15 8 0 15 5 15 10 0 14
-26 12 -38 -2z"/>
<path d="M2324 1632 c-6 -4 -14 -19 -17 -33 -6 -23 -4 -26 23 -27 16 0 32 4
35 9 4 5 -3 9 -14 9 -12 0 -21 7 -21 15 0 8 7 15 16 15 8 0 12 5 9 10 -7 12
-16 12 -31 2z"/>
<path d="M504 1589 c-10 -17 13 -36 27 -22 12 12 4 33 -11 33 -5 0 -12 -5 -16
-11z"/>
<path d="M560 1581 c0 -12 6 -21 16 -21 9 0 14 7 12 17 -5 25 -28 28 -28 4z"/>
<path d="M785 1570 c-4 -6 -4 -32 -1 -58 9 -69 -4 -106 -37 -110 -31 -4 -37 6
-40 64 -1 27 -7 39 -17 39 -11 0 -16 -14 -20 -50 -5 -46 -7 -50 -34 -53 -37
-5 -46 10 -46 81 0 44 -3 57 -15 57 -8 0 -15 -4 -15 -10 0 -5 -16 -10 -35 -10
-40 0 -71 -25 -81 -66 -13 -53 54 -102 104 -75 15 8 28 7 49 -4 21 -11 38 -12
61 -6 17 5 44 6 59 2 15 -4 42 -4 59 1 19 5 42 4 56 -1 14 -5 78 -9 142 -10
l116 0 0 54 c0 101 -34 139 -121 137 -56 -1 -70 -7 -63 -26 4 -9 19 -12 54 -8
42 4 52 1 74 -21 34 -34 37 -97 6 -97 -15 0 -20 7 -20 28 0 35 -27 62 -63 62
-31 0 -57 -33 -57 -71 0 -24 -2 -26 -37 -20 l-38 6 -3 88 c-2 67 -6 87 -17 87
-8 0 -17 -5 -20 -10z m-225 -109 c0 -28 -22 -61 -40 -61 -25 0 -40 15 -40 39
0 35 17 51 52 51 24 0 28 -4 28 -29z m424 -17 c12 -31 6 -44 -19 -44 -20 0
-25 5 -25 23 0 38 32 53 44 21z"/>
<path d="M1290 1490 c0 -89 0 -90 -25 -90 -24 0 -25 2 -25 71 0 59 -3 70 -16
67 -13 -2 -17 -17 -18 -68 l-1 -65 -32 -3 c-25 -2 -33 -8 -33 -23 0 -17 8 -19
90 -19 l90 0 0 110 c0 91 -3 110 -15 110 -12 0 -15 -17 -15 -90z"/>
<path d="M1370 1470 c0 -91 3 -110 15 -110 12 0 15 19 15 110 0 91 -3 110 -15
110 -12 0 -15 -19 -15 -110z"/>
<path d="M1910 1490 l0 -90 -35 0 -34 0 -3 63 c-4 79 -22 77 -26 -4 -3 -59 -4
-60 -30 -57 -25 3 -27 7 -32 58 -4 40 -9 55 -20 55 -11 0 -16 -15 -20 -55 -5
-51 -7 -55 -32 -58 -28 -3 -28 -3 -28 57 0 48 -3 61 -15 61 -12 0 -15 -15 -15
-76 0 -97 -9 -114 -60 -114 -47 0 -65 25 -57 76 5 29 3 34 -14 34 -16 0 -19
-7 -19 -50 0 -55 22 -84 71 -95 33 -8 96 19 104 44 7 23 80 42 115 30 15 -6
60 -9 101 -7 l74 3 3 108 c2 91 0 107 -13 107 -12 0 -15 -16 -15 -90z"/>
<path d="M2410 1490 c0 -89 0 -90 -25 -90 -24 0 -25 2 -25 71 0 62 -2 70 -17
67 -15 -3 -18 -15 -19 -68 l-1 -65 -32 -3 c-23 -2 -31 -8 -31 -23 0 -17 8 -19
90 -19 l90 0 0 110 c0 91 -3 110 -15 110 -12 0 -15 -17 -15 -90z"/>
<path d="M2490 1470 c0 -91 3 -110 15 -110 12 0 15 19 15 110 0 91 -3 110 -15
110 -12 0 -15 -19 -15 -110z"/>
<path d="M3112 1473 c2 -88 6 -108 18 -108 12 0 16 20 18 108 3 102 2 107 -18
107 -20 0 -21 -5 -18 -107z"/>
<path d="M2184 1559 c-8 -14 18 -31 30 -19 9 9 0 30 -14 30 -5 0 -12 -5 -16
-11z"/>
<path d="M2937 1524 c-4 -4 -7 -34 -7 -66 0 -55 -1 -58 -24 -58 -28 0 -36 16
-36 76 0 32 -4 44 -15 44 -11 0 -15 -12 -15 -44 0 -60 -8 -76 -36 -76 -23 0
-24 3 -24 60 0 47 -3 60 -15 60 -12 0 -15 -14 -15 -67 0 -87 -15 -117 -58
-121 -46 -5 -62 12 -62 64 0 55 -26 62 -36 10 -8 -48 13 -87 57 -104 31 -12
41 -11 73 2 21 9 40 24 43 35 7 28 70 39 150 26 39 -7 42 -6 48 17 9 36 1 141
-11 145 -5 2 -13 0 -17 -3z"/>
<path d="M3216 1515 c-3 -9 0 -17 7 -19 61 -16 71 -23 78 -50 11 -41 5 -46
-52 -46 -42 0 -49 -3 -49 -20 0 -19 7 -20 94 -20 52 0 106 4 120 10 17 6 35 6
53 -1 50 -19 103 23 103 80 0 34 -39 71 -74 71 -40 0 -60 -21 -75 -77 -11 -40
-14 -43 -46 -43 -30 0 -35 3 -35 25 0 38 -20 73 -49 84 -55 21 -69 22 -75 6z
m309 -70 c0 -39 -1 -40 -35 -40 -39 0 -47 15 -30 59 8 22 15 27 38 24 24 -3
27 -7 27 -43z"/>
<path d="M2000 1505 c0 -9 9 -15 25 -15 32 0 65 -33 65 -64 0 -23 -4 -25 -52
-28 -39 -2 -53 -7 -53 -18 0 -12 19 -15 115 -15 l115 0 3 68 c2 55 0 67 -13
67 -11 0 -15 -12 -15 -50 l0 -50 -35 0 c-33 0 -35 2 -35 35 0 25 -8 44 -25 60
-28 29 -95 36 -95 10z"/>
<path d="M3030 1441 c0 -80 -13 -111 -45 -111 -16 0 -25 -6 -25 -15 0 -10 10
-15 28 -15 54 0 72 33 72 129 0 56 -3 71 -15 71 -12 0 -15 -13 -15 -59z"/>
<path d="M650 1325 c0 -8 7 -15 15 -15 8 0 15 7 15 15 0 8 -7 15 -15 15 -8 0
-15 -7 -15 -15z"/>
<path d="M697 1334 c-9 -10 2 -24 19 -24 8 0 14 7 14 15 0 15 -21 21 -33 9z"/>
<path d="M468 1138 c-14 -35 -20 -65 -15 -67 5 -2 14 4 19 13 12 21 58 22 58
1 0 -8 7 -15 16 -15 9 0 13 6 11 13 -3 6 -14 36 -23 65 -10 28 -23 52 -30 52
-7 0 -23 -28 -36 -62z m48 -15 c-2 -3 -11 -3 -19 -1 -11 2 -12 9 -5 28 l10 25
9 -24 c5 -13 7 -26 5 -28z"/>
<path d="M590 1135 l0 -65 47 0 c25 0 43 3 39 7 -4 4 -19 7 -34 8 -26 0 -27 3
-30 58 -4 78 -22 72 -22 -8z"/>
<path d="M747 1193 c-3 -5 -15 -33 -26 -63 -21 -55 -19 -79 3 -47 17 22 52 22
65 0 20 -36 22 -2 4 53 -18 55 -35 75 -46 57z m26 -53 c4 -15 0 -20 -15 -20
-14 0 -18 5 -14 16 3 9 6 20 6 25 0 17 17 1 23 -21z"/>
<path d="M846 1192 c-2 -4 -5 -33 -5 -65 0 -43 4 -57 15 -57 10 0 14 12 14 43
l0 42 28 -42 c15 -24 33 -43 40 -43 12 0 14 10 14 70 0 52 -2 60 -11 60 -6 0
-11 -19 -13 -42 l-3 -42 -28 42 c-27 41 -41 50 -51 34z"/>
<path d="M990 1135 l0 -65 45 0 c49 0 65 16 65 68 0 38 -28 62 -73 62 l-37 0
0 -65z m80 25 c16 -29 2 -67 -26 -73 -13 -2 -26 -2 -29 1 -7 8 -6 77 2 85 13
14 43 6 53 -13z"/>
<path d="M1151 1134 c-23 -66 -23 -93 1 -55 16 25 53 27 67 4 5 -10 12 -15 16
-11 10 9 -36 128 -49 128 -6 0 -22 -30 -35 -66z m49 -1 c0 -7 -7 -13 -15 -13
-16 0 -19 9 -9 35 5 13 8 14 15 3 5 -7 9 -19 9 -25z"/>
<path d="M1270 1135 l0 -65 29 0 c16 0 36 -3 45 -6 10 -4 16 -1 16 9 0 9 -10
14 -27 13 -27 -1 -28 1 -31 57 -2 42 -7 57 -17 57 -12 0 -15 -15 -15 -65z"/>
<path d="M1390 1148 c0 -62 6 -74 42 -83 41 -11 68 23 68 85 0 38 -4 50 -15
50 -12 0 -15 -13 -15 -55 0 -42 -4 -57 -16 -62 -25 -9 -44 24 -44 74 0 24 -4
43 -10 43 -5 0 -10 -24 -10 -52z"/>
<path d="M1534 1185 c-10 -24 4 -45 36 -57 42 -14 37 -44 -8 -42 -34 2 -43
-10 -16 -20 28 -11 51 -6 69 14 23 26 13 48 -31 66 -29 12 -33 18 -24 29 8 9
22 12 42 8 22 -4 29 -3 24 5 -11 18 -85 15 -92 -3z"/>
<path d="M1730 1136 c0 -37 4 -66 10 -66 6 0 10 11 10 24 0 20 6 25 31 28 71
7 63 71 -10 76 l-41 3 0 -65z m70 24 c0 -15 -7 -20 -25 -20 -18 0 -25 5 -25
20 0 15 7 20 25 20 18 0 25 -5 25 -20z"/>
<path d="M1860 1135 c0 -61 15 -91 22 -43 4 31 26 34 39 4 7 -14 18 -26 26
-26 16 0 16 5 1 31 -10 17 -10 23 0 26 18 7 15 60 -4 67 -9 3 -31 6 -50 6
l-34 0 0 -65z m75 25 c0 -9 -11 -16 -27 -18 -27 -3 -38 14 -21 32 12 12 48 2
48 -14z"/>
<path d="M1999 1193 c-1 -5 -2 -34 -3 -65 -1 -40 3 -58 12 -58 8 0 12 20 12
65 0 37 -4 65 -10 65 -5 0 -11 -3 -11 -7z"/>
<path d="M2053 1187 c3 -8 11 -35 18 -58 14 -51 35 -78 48 -64 8 9 41 113 41
129 0 17 -19 3 -24 -19 -3 -13 -11 -37 -17 -52 l-11 -28 -17 49 c-10 28 -23
52 -31 54 -8 3 -11 -1 -7 -11z"/>
<path d="M2235 1191 c-3 -6 -14 -35 -25 -66 -16 -46 -17 -55 -4 -55 7 0 14 7
14 15 0 9 9 15 25 15 14 0 28 -7 31 -15 4 -8 12 -15 19 -15 9 0 6 17 -10 62
-22 61 -37 79 -50 59z m28 -51 c4 -15 0 -20 -15 -20 -14 0 -18 5 -14 16 3 9 6
20 6 25 0 17 17 1 23 -21z"/>
<path d="M2330 1190 c0 -5 9 -10 20 -10 18 0 20 -7 20 -55 0 -30 5 -55 10 -55
6 0 10 25 10 55 0 48 2 55 20 55 11 0 20 5 20 10 0 6 -22 10 -50 10 -27 0 -50
-4 -50 -10z"/>
<path d="M2460 1135 l0 -65 48 1 c44 2 45 2 12 8 -26 4 -35 11 -35 26 0 14 8
21 28 23 37 4 35 22 -3 22 -20 0 -30 5 -30 15 0 10 11 15 35 15 19 0 35 5 35
10 0 6 -20 10 -45 10 l-45 0 0 -65z"/>
<path d="M2651 1186 c-17 -20 -5 -41 34 -59 19 -9 35 -21 35 -26 0 -14 -37
-23 -60 -16 -11 3 -20 2 -20 -4 0 -5 13 -12 29 -16 70 -15 101 52 36 79 -19 8
-35 19 -35 24 0 14 25 22 49 15 12 -3 21 -1 21 6 0 16 -75 14 -89 -3z"/>
<path d="M2786 1178 c-42 -59 2 -129 70 -112 34 9 30 27 -4 19 -37 -8 -54 12
-50 57 3 30 6 33 41 36 49 4 48 22 -2 22 -30 0 -44 -6 -55 -22z"/>
<path d="M2910 1135 c0 -51 3 -65 15 -65 10 0 15 10 15 30 0 25 4 30 25 30 21
0 25 -5 25 -30 0 -20 5 -30 15 -30 12 0 15 14 15 65 0 51 -3 65 -15 65 -9 0
-15 -9 -15 -25 0 -20 -5 -25 -25 -25 -20 0 -25 5 -25 25 0 16 -6 25 -15 25
-12 0 -15 -14 -15 -65z"/>
<path d="M3066 1178 c-41 -58 6 -132 69 -108 35 13 47 69 25 111 -15 28 -74
26 -94 -3z m79 -27 c3 -17 1 -39 -5 -50 -21 -40 -60 -18 -60 34 0 38 6 45 36
45 17 0 24 -7 29 -29z"/>
<path d="M3222 1187 c-51 -61 10 -154 73 -113 27 18 34 70 15 107 -12 22 -71
27 -88 6z m74 -33 c4 -14 2 -36 -5 -50 -20 -44 -61 -23 -61 31 0 38 6 45 36
45 17 0 25 -7 30 -26z"/>
<path d="M3360 1136 l0 -64 40 -4 c25 -2 39 0 37 7 -2 5 -15 10 -28 10 -22 0
-24 4 -27 58 -4 78 -22 73 -22 -7z"/>
<path d="M3474 1185 c-10 -24 4 -45 36 -57 42 -14 37 -44 -8 -42 -37 2 -43
-11 -9 -20 33 -8 65 3 72 25 8 26 -1 38 -42 55 -28 12 -32 18 -23 29 8 9 22
12 42 8 22 -4 29 -3 24 5 -11 18 -85 15 -92 -3z"/>
</g>
</svg>
